<svg version="1.1" id="Layer_1" xmlns="http://www.w3.org/2000/svg" xmlns:xlink="http://www.w3.org/1999/xlink" x="0px" y="0px"
	 width="100%" viewBox="0 0 487 487" enable-background="new 0 0 487 487" xml:space="preserve">
<path fill="#FFFFFF" opacity="1.000000" stroke="none" 
	d="
M1.000000,184.000000 
	C1.000000,122.682259 1.000000,61.864525 1.000000,1.023393 
	C163.276123,1.023393 325.552246,1.023393 487.914185,1.023393 
	C487.914185,163.234467 487.914185,325.468994 487.914185,487.851746 
	C325.666779,487.851746 163.333405,487.851746 1.000000,487.851746 
	C1.000000,386.780975 1.000000,285.640472 1.000000,184.000000 
M217.981003,157.473892 
	C217.981003,157.473892 217.541580,157.697128 217.256088,157.325134 
	C217.256088,157.325134 216.894669,157.026398 216.927582,156.088135 
	C216.921448,146.441650 217.135544,136.787537 216.801300,127.152443 
	C216.666702,123.272270 216.030106,119.107147 214.410172,115.637466 
	C209.509262,105.140381 198.917770,96.929688 183.396088,97.991119 
	C172.135010,98.761185 157.075226,112.659355 157.890457,124.088463 
	C158.669189,135.005890 157.986343,146.027557 157.210587,157.285889 
	C156.990356,157.428879 156.770142,157.571884 155.759369,157.353912 
	C146.596375,157.340668 137.432373,157.235229 128.270645,157.336212 
	C115.193283,157.480316 102.248337,165.957886 98.429573,177.215515 
	C92.072678,195.955505 105.702812,214.777206 124.167313,216.506668 
	C134.883667,217.510406 145.781738,216.574234 157.311249,216.731415 
	C157.539154,216.831329 157.767059,216.931244 157.984451,217.687378 
	C158.053970,218.117172 158.123474,218.546982 158.078308,219.910461 
	C158.069336,237.330276 158.018326,254.750183 158.064896,272.169861 
	C158.101242,285.766876 158.258820,299.363586 158.192719,313.672272 
	C158.824066,315.103210 159.455414,316.534119 160.125092,318.653992 
	C160.829239,319.742401 161.533371,320.830841 162.226883,322.562653 
	C163.176559,323.640228 164.126236,324.717773 165.328323,326.368134 
	C165.968430,326.881897 166.608536,327.395660 167.437134,328.536591 
	C169.641678,329.878540 171.846237,331.220459 174.687088,332.783844 
	C175.133240,332.835327 175.579376,332.886810 176.298141,333.511292 
	C177.215576,333.860687 178.133011,334.210114 179.823074,334.778656 
	C180.893112,334.823914 181.963150,334.869171 183.439835,335.563904 
	C185.682434,335.912598 187.923721,336.555450 190.167831,336.565491 
	C219.091064,336.695007 248.014694,336.734344 277.204987,337.728485 
	C277.233307,345.389526 277.743866,353.086334 277.179230,360.703430 
	C276.286743,372.743317 281.469727,381.451752 289.901428,389.451935 
	C296.774078,395.972809 314.169220,396.032928 320.908905,392.256226 
	C332.286102,385.880707 338.122131,376.374451 337.813629,363.063507 
	C337.610046,354.277130 338.106232,345.474548 339.183380,336.561920 
	C350.910858,336.009338 362.684814,335.930908 374.354340,334.786987 
	C389.752197,333.277740 402.001831,313.298889 396.267761,298.371124 
	C390.761078,284.035431 381.269897,276.392395 366.133728,276.313416 
	C356.828308,276.264862 347.523102,276.177094 337.873199,275.210358 
	C337.833435,246.435287 337.440186,217.654648 337.892792,188.887314 
	C338.145081,172.853607 325.273743,157.273697 306.753754,157.333817 
	C284.797241,157.405090 262.840332,157.351486 240.883667,157.390594 
	C239.587250,157.392899 238.291443,157.738571 236.126648,157.532166 
	C230.666656,157.631149 225.206680,157.730133 219.359253,157.462234 
	C219.039597,157.552490 218.719940,157.642746 217.981003,157.473892 
M44.304886,249.245819 
	C38.304417,249.245163 32.300007,249.374207 26.305044,249.192169 
	C23.037956,249.092957 21.920298,250.241013 22.028315,253.538971 
	C22.466091,266.905151 21.864531,280.285919 26.848633,293.208954 
	C29.625957,300.410095 30.460646,308.346008 33.060131,315.633575 
	C37.140465,327.072662 41.390087,338.522675 46.630318,349.459076 
	C53.548367,363.897095 63.210144,376.608795 73.429619,388.968536 
	C85.743088,403.860809 99.476891,417.114075 115.484833,427.844330 
	C126.233154,435.049011 137.373001,441.714661 148.652740,448.061523 
	C153.886856,451.006683 159.820557,452.760376 165.528412,454.798584 
	C172.586090,457.318787 179.672913,459.801270 186.869461,461.875702 
	C193.482361,463.781921 200.195511,465.504395 206.978043,466.613495 
	C214.300980,467.810944 221.776672,468.037903 229.148865,468.977448 
	C250.469025,471.694611 271.628143,469.579529 292.558899,465.979797 
	C303.597748,464.081299 314.554901,460.630157 324.968048,456.437317 
	C338.754639,450.886230 352.456757,444.765991 365.324982,437.375183 
	C386.317688,425.318268 404.425720,409.283295 419.913330,390.797546 
	C429.660309,379.163818 437.903534,366.147430 445.803772,353.133545 
	C450.866669,344.793549 454.353790,335.440613 458.030884,326.333282 
	C461.064453,318.819794 463.724091,311.104095 465.837158,303.285492 
	C467.746307,296.221161 468.896301,288.927704 470.009155,281.678162 
	C471.435242,272.388214 472.487335,263.040863 473.704102,253.718704 
	C474.110596,250.604797 473.035431,249.113403 469.614014,249.190063 
	C462.118134,249.358032 454.613525,249.353104 447.117523,249.188263 
	C444.231842,249.124802 443.400696,250.233536 443.293823,252.961060 
	C442.732117,267.290070 441.488495,281.543823 437.217712,295.339355 
	C434.471924,304.208832 432.526337,313.486359 428.552155,321.780914 
	C420.938538,337.671417 412.815765,353.336884 401.173248,366.935883 
	C382.312286,388.966278 361.193085,408.038116 334.559143,420.242920 
	C321.351746,426.295135 308.120148,432.292542 293.559479,434.616516 
	C283.555725,436.213165 273.678436,439.437592 263.652771,439.887604 
	C242.671783,440.829376 221.560120,441.332581 201.145538,434.558594 
	C190.347260,430.975525 179.199631,428.281799 168.709152,423.971130 
	C150.893021,416.650360 134.532898,406.722626 119.927734,393.957855 
	C104.662361,380.616028 90.631416,366.086945 80.346344,348.632385 
	C69.756157,330.660004 60.968010,311.791412 56.416370,291.091827 
	C53.789734,279.146637 51.624557,267.231995 51.611122,255.050995 
	C51.605545,249.996857 49.804050,248.514297 44.304886,249.245819 
M447.886444,143.404419 
	C446.528564,140.770050 445.317444,138.047165 443.789703,135.515289 
	C431.215363,114.676643 416.024506,95.975555 397.872284,79.727058 
	C384.168396,67.460396 369.162170,57.027687 352.584991,49.077271 
	C343.085480,44.521313 333.246918,40.621796 323.388916,36.880039 
	C315.678314,33.953350 307.824890,31.205971 299.813324,29.320694 
	C290.534210,27.137138 281.047729,25.717417 271.584686,24.472019 
	C264.621613,23.555635 257.551483,23.452353 250.141937,22.961071 
	C250.141937,32.431477 250.020157,40.913826 250.282410,49.384281 
	C250.318817,50.560459 252.242401,52.665207 253.304932,52.673218 
	C267.227692,52.778187 280.859772,54.956478 294.165375,58.755222 
	C305.857635,62.093353 317.823425,65.180466 328.740051,70.341972 
	C341.224976,76.245018 353.019501,83.819695 364.510162,91.564018 
	C381.313995,102.889206 394.891510,117.777725 407.009857,133.864502 
	C417.191742,147.380692 425.084137,162.307449 430.822174,178.254089 
	C433.915009,186.849411 437.207001,195.509064 438.935394,204.425385 
	C441.161163,215.907623 442.031525,227.663925 443.208893,239.330109 
	C443.503723,242.251328 443.809601,243.972549 447.368439,243.863190 
	C454.691223,243.638153 462.029785,243.652878 469.353821,243.857040 
	C472.997375,243.958618 474.069122,242.438904 473.749512,239.084061 
	C473.010895,231.331085 473.111145,223.419373 471.560913,215.840027 
	C468.889709,202.780334 465.867920,189.715836 461.777863,177.045700 
	C458.137421,165.768311 452.850311,155.022461 447.886444,143.404419 
M169.388901,37.063942 
	C160.546600,40.745399 151.399948,43.840122 142.927505,48.234638 
	C126.971588,56.510696 111.810928,66.211136 98.500282,78.383278 
	C72.776459,101.906845 51.430283,128.457886 38.510147,161.509186 
	C32.786186,176.151794 28.144205,190.993576 24.992586,206.200714 
	C22.692459,217.299210 22.853035,228.923737 22.245777,240.331284 
	C22.187592,241.424316 24.427725,243.591446 25.670965,243.645401 
	C32.986511,243.962830 40.325153,243.693558 47.651085,243.851166 
	C50.830967,243.919601 51.395359,242.459671 51.654301,239.640701 
	C52.510937,230.314850 53.795937,221.029343 54.766846,211.712769 
	C56.105694,198.865524 60.807011,187.065018 65.374664,175.129089 
	C73.732658,153.288467 86.020058,134.058945 101.909981,117.004532 
	C117.239861,100.551201 134.165665,86.149239 154.311295,75.853767 
	C169.302155,68.192657 184.759583,61.998459 201.358643,58.406349 
	C214.732346,55.512222 228.034622,52.922722 241.743683,52.799229 
	C242.362595,52.793652 242.979233,52.533787 243.618652,52.387390 
	C243.618652,42.621899 243.618652,33.065880 243.618652,22.919184 
	C238.125824,23.366987 233.008499,23.528011 227.971527,24.249762 
	C218.382263,25.623814 208.831192,27.272978 199.280655,28.903934 
	C195.913651,29.478920 192.543091,30.155901 189.264633,31.100391 
	C182.871719,32.942120 176.542633,35.005318 169.388901,37.063942 
z"/>
<path fill="#0F8E13" opacity="1.000000" stroke="none" 
	d="
M44.773735,249.245621 
	C49.804050,248.514297 51.605545,249.996857 51.611122,255.050995 
	C51.624557,267.231995 53.789734,279.146637 56.416370,291.091827 
	C60.968010,311.791412 69.756157,330.660004 80.346344,348.632385 
	C90.631416,366.086945 104.662361,380.616028 119.927734,393.957855 
	C134.532898,406.722626 150.893021,416.650360 168.709152,423.971130 
	C179.199631,428.281799 190.347260,430.975525 201.145538,434.558594 
	C221.560120,441.332581 242.671783,440.829376 263.652771,439.887604 
	C273.678436,439.437592 283.555725,436.213165 293.559479,434.616516 
	C308.120148,432.292542 321.351746,426.295135 334.559143,420.242920 
	C361.193085,408.038116 382.312286,388.966278 401.173248,366.935883 
	C412.815765,353.336884 420.938538,337.671417 428.552155,321.780914 
	C432.526337,313.486359 434.471924,304.208832 437.217712,295.339355 
	C441.488495,281.543823 442.732117,267.290070 443.293823,252.961060 
	C443.400696,250.233536 444.231842,249.124802 447.117523,249.188263 
	C454.613525,249.353104 462.118134,249.358032 469.614014,249.190063 
	C473.035431,249.113403 474.110596,250.604797 473.704102,253.718704 
	C472.487335,263.040863 471.435242,272.388214 470.009155,281.678162 
	C468.896301,288.927704 467.746307,296.221161 465.837158,303.285492 
	C463.724091,311.104095 461.064453,318.819794 458.030884,326.333282 
	C454.353790,335.440613 450.866669,344.793549 445.803772,353.133545 
	C437.903534,366.147430 429.660309,379.163818 419.913330,390.797546 
	C404.425720,409.283295 386.317688,425.318268 365.324982,437.375183 
	C352.456757,444.765991 338.754639,450.886230 324.968048,456.437317 
	C314.554901,460.630157 303.597748,464.081299 292.558899,465.979797 
	C271.628143,469.579529 250.469025,471.694611 229.148865,468.977448 
	C221.776672,468.037903 214.300980,467.810944 206.978043,466.613495 
	C200.195511,465.504395 193.482361,463.781921 186.869461,461.875702 
	C179.672913,459.801270 172.586090,457.318787 165.528412,454.798584 
	C159.820557,452.760376 153.886856,451.006683 148.652740,448.061523 
	C137.373001,441.714661 126.233154,435.049011 115.484833,427.844330 
	C99.476891,417.114075 85.743088,403.860809 73.429619,388.968536 
	C63.210144,376.608795 53.548367,363.897095 46.630318,349.459076 
	C41.390087,338.522675 37.140465,327.072662 33.060131,315.633575 
	C30.460646,308.346008 29.625957,300.410095 26.848633,293.208954 
	C21.864531,280.285919 22.466091,266.905151 22.028315,253.538971 
	C21.920298,250.241013 23.037956,249.092957 26.305044,249.192169 
	C32.300007,249.374207 38.304417,249.245163 44.773735,249.245621 
z"/>
<path fill="#0FBAB7" opacity="1.000000" stroke="none" 
	d="
M448.088196,143.723221 
	C452.850311,155.022461 458.137421,165.768311 461.777863,177.045700 
	C465.867920,189.715836 468.889709,202.780334 471.560913,215.840027 
	C473.111145,223.419373 473.010895,231.331085 473.749512,239.084061 
	C474.069122,242.438904 472.997375,243.958618 469.353821,243.857040 
	C462.029785,243.652878 454.691223,243.638153 447.368439,243.863190 
	C443.809601,243.972549 443.503723,242.251328 443.208893,239.330109 
	C442.031525,227.663925 441.161163,215.907623 438.935394,204.425385 
	C437.207001,195.509064 433.915009,186.849411 430.822174,178.254089 
	C425.084137,162.307449 417.191742,147.380692 407.009857,133.864502 
	C394.891510,117.777725 381.313995,102.889206 364.510162,91.564018 
	C353.019501,83.819695 341.224976,76.245018 328.740051,70.341972 
	C317.823425,65.180466 305.857635,62.093353 294.165375,58.755222 
	C280.859772,54.956478 267.227692,52.778187 253.304932,52.673218 
	C252.242401,52.665207 250.318817,50.560459 250.282410,49.384281 
	C250.020157,40.913826 250.141937,32.431477 250.141937,22.961071 
	C257.551483,23.452353 264.621613,23.555635 271.584686,24.472019 
	C281.047729,25.717417 290.534210,27.137138 299.813324,29.320694 
	C307.824890,31.205971 315.678314,33.953350 323.388916,36.880039 
	C333.246918,40.621796 343.085480,44.521313 352.584991,49.077271 
	C369.162170,57.027687 384.168396,67.460396 397.872284,79.727058 
	C416.024506,95.975555 431.215363,114.676643 443.789703,135.515289 
	C445.317444,138.047165 446.528564,140.770050 448.088196,143.723221 
z"/>
<path fill="#FFC219" opacity="1.000000" stroke="none" 
	d="
M169.787994,37.020370 
	C176.542633,35.005318 182.871719,32.942120 189.264633,31.100391 
	C192.543091,30.155901 195.913651,29.478920 199.280655,28.903934 
	C208.831192,27.272978 218.382263,25.623814 227.971527,24.249762 
	C233.008499,23.528011 238.125824,23.366987 243.618652,22.919184 
	C243.618652,33.065880 243.618652,42.621899 243.618652,52.387390 
	C242.979233,52.533787 242.362595,52.793652 241.743683,52.799229 
	C228.034622,52.922722 214.732346,55.512222 201.358643,58.406349 
	C184.759583,61.998459 169.302155,68.192657 154.311295,75.853767 
	C134.165665,86.149239 117.239861,100.551201 101.909981,117.004532 
	C86.020058,134.058945 73.732658,153.288467 65.374664,175.129089 
	C60.807011,187.065018 56.105694,198.865524 54.766846,211.712769 
	C53.795937,221.029343 52.510937,230.314850 51.654301,239.640701 
	C51.395359,242.459671 50.830967,243.919601 47.651085,243.851166 
	C40.325153,243.693558 32.986511,243.962830 25.670965,243.645401 
	C24.427725,243.591446 22.187592,241.424316 22.245777,240.331284 
	C22.853035,228.923737 22.692459,217.299210 24.992586,206.200714 
	C28.144205,190.993576 32.786186,176.151794 38.510147,161.509186 
	C51.430283,128.457886 72.776459,101.906845 98.500282,78.383278 
	C111.810928,66.211136 126.971588,56.510696 142.927505,48.234638 
	C151.399948,43.840122 160.546600,40.745399 169.787994,37.020370 
z"/>
<path fill="#FFC217" opacity="1.000000" stroke="none" 
	d="
M158.362534,312.960419 
	C158.258820,299.363586 158.101242,285.766876 158.064896,272.169861 
	C158.018326,254.750183 158.069336,237.330276 158.334717,219.280762 
	C158.726166,218.165176 158.861206,217.679291 159.452042,217.074799 
	C178.601425,217.023392 197.295029,217.090576 215.989136,217.613556 
	C215.992111,225.397156 215.921844,232.726196 216.051285,240.051727 
	C216.081406,241.756393 216.791107,243.449051 217.215302,245.603851 
	C217.214966,250.997665 217.187485,255.934830 216.842407,261.165955 
	C216.696274,266.990326 216.867752,272.520752 217.028015,278.417786 
	C217.018539,279.517944 217.020248,280.251526 217.020416,281.411133 
	C217.605194,284.350616 215.313278,288.017303 219.912964,289.345459 
	C219.966415,290.834259 219.972443,291.919281 219.732620,293.205383 
	C219.969345,294.263763 220.451935,295.121033 220.958893,296.351929 
	C220.995773,297.474304 221.008270,298.223083 220.744812,299.212158 
	C220.127335,302.686035 219.932083,305.850708 224.009644,307.000214 
	C223.998520,307.001312 224.001892,306.979340 224.004883,307.356201 
	C224.666748,308.822357 225.325653,309.911652 225.994568,311.233459 
	C226.004593,311.465973 226.008636,311.931366 226.009644,312.294403 
	C226.685455,313.433929 227.360260,314.210388 228.017212,314.993835 
	C227.999390,315.000824 228.014130,314.965546 228.043610,315.313232 
	C233.136581,322.321747 238.771912,328.275635 247.017181,330.997101 
	C247.008728,331.001434 247.005081,330.985657 247.045929,331.310486 
	C247.405487,332.339172 247.724197,333.043030 248.160950,334.007568 
	C228.013977,334.007568 208.124878,333.985107 188.236053,334.046967 
	C186.500900,334.052368 184.767441,334.612152 183.033188,334.914429 
	C181.963150,334.869171 180.893112,334.823914 179.380432,334.381744 
	C177.967041,333.635986 176.996292,333.287170 176.025528,332.938324 
	C175.579376,332.886810 175.133240,332.835327 174.302505,332.357361 
	C171.694824,330.590424 169.471741,329.249908 167.248642,327.909424 
	C166.608536,327.395660 165.968430,326.881897 165.188217,325.743042 
	C164.111237,324.051727 163.174377,322.985504 162.237503,321.919250 
	C161.533371,320.830841 160.829239,319.742401 160.338577,318.107422 
	C159.822220,316.027344 159.092377,314.493896 158.362534,312.960419 
z"/>
<path fill="#10C4C1" opacity="1.000000" stroke="none" 
	d="
M236.995361,157.924469 
	C238.291443,157.738571 239.587250,157.392899 240.883667,157.390594 
	C262.840332,157.351486 284.797241,157.405090 306.753754,157.333817 
	C325.273743,157.273697 338.145081,172.853607 337.892792,188.887314 
	C337.440186,217.654648 337.833435,246.435287 337.891052,275.824890 
	C337.908905,276.439392 337.561768,276.731689 337.421265,276.528564 
	C337.280731,276.325409 336.922272,275.992767 336.775146,275.603943 
	C336.417450,273.418793 336.034912,271.623474 336.024658,269.826050 
	C335.965912,259.503876 336.390442,249.161636 335.880646,238.864334 
	C335.400116,229.158493 334.081726,219.484512 332.794708,209.841507 
	C332.648560,208.746521 330.334167,207.143494 329.007202,207.125809 
	C314.358490,206.930740 299.706177,207.022812 285.054993,206.984375 
	C282.421997,206.977463 281.172729,207.956924 280.950348,210.747345 
	C280.457367,216.932938 279.721649,223.101669 278.943909,229.259476 
	C278.822601,230.220078 277.959045,231.086929 277.365051,231.536301 
	C277.213135,226.304230 277.134918,221.532990 277.025085,216.320068 
	C276.329620,211.582886 275.665771,207.287369 275.005859,202.576721 
	C274.982483,200.778305 274.955170,199.395035 274.847717,197.785843 
	C274.580536,197.282135 274.326019,197.097260 273.987549,196.760315 
	C273.971100,196.515350 273.933960,196.025726 273.944916,195.725281 
	C273.657501,194.942932 273.359100,194.461029 273.036133,193.654755 
	C272.975677,192.898193 272.939819,192.465988 272.897400,191.674271 
	C271.968658,189.823853 271.046448,188.332947 269.960022,186.523712 
	C266.881958,176.578735 259.220154,171.525848 251.065979,166.527863 
	C248.024796,164.439468 245.076080,162.681366 242.046722,160.615540 
	C241.299271,159.949112 240.632462,159.590393 239.601990,159.176422 
	C238.505234,159.085007 237.772156,159.048859 237.023804,158.830795 
	C236.961487,158.408173 236.957092,158.166702 236.995361,157.924469 
z"/>
<path fill="#0F8C0F" opacity="1.000000" stroke="none" 
	d="
M215.988617,217.157745 
	C197.295029,217.090576 178.601425,217.023392 159.213837,216.959366 
	C158.344879,216.985382 158.169922,217.008255 157.994949,217.031143 
	C157.767059,216.931244 157.539154,216.831329 157.081665,216.445190 
	C156.852066,216.158966 156.698380,215.757645 156.817474,215.326614 
	C156.844513,196.035187 156.752426,177.174805 156.721146,158.148239 
	C156.781937,157.982071 156.549911,157.714890 156.549911,157.714890 
	C156.770142,157.571884 156.990356,157.428879 158.045868,157.227051 
	C178.218994,157.120926 197.556839,157.073654 216.894669,157.026398 
	C216.894669,157.026398 217.256088,157.325134 217.221680,157.891815 
	C217.124802,177.790665 217.062332,197.122849 216.734161,216.612106 
	C216.308502,216.898712 216.148560,217.028229 215.988617,217.157745 
z"/>
<path fill="#FABE16" opacity="1.000000" stroke="none" 
	d="
M338.063354,276.273132 
	C347.523102,276.177094 356.828308,276.264862 366.133728,276.313416 
	C381.269897,276.392395 390.761078,284.035431 396.267761,298.371124 
	C402.001831,313.298889 389.752197,333.277740 374.354340,334.786987 
	C362.684814,335.930908 350.910858,336.009338 338.547455,336.336609 
	C337.767792,335.935181 337.624023,335.759033 337.668457,335.185883 
	C337.903198,325.846497 338.026611,316.903656 337.976196,307.961792 
	C337.917480,297.551300 337.706604,287.141693 337.561768,276.731689 
	C337.561768,276.731689 337.908905,276.439392 338.063354,276.273132 
z"/>
<path fill="#0EB9B5" opacity="1.000000" stroke="none" 
	d="
M337.480225,335.582855 
	C337.624023,335.759033 337.767792,335.935181 338.100342,336.395264 
	C338.106232,345.474548 337.610046,354.277130 337.813629,363.063507 
	C338.122131,376.374451 332.286102,385.880707 320.908905,392.256226 
	C314.169220,396.032928 296.774078,395.972809 289.901428,389.451935 
	C281.469727,381.451752 276.286743,372.743317 277.179230,360.703430 
	C277.743866,353.086334 277.233307,345.389526 277.243774,337.003845 
	C277.409058,336.114929 277.535583,335.950623 278.066284,335.887421 
	C291.544678,336.017029 304.619110,336.102753 317.692993,336.050171 
	C324.289246,336.023651 330.884521,335.746613 337.480225,335.582855 
z"/>
<path fill="#FEC117" opacity="1.000000" stroke="none" 
	d="
M216.911133,156.557251 
	C197.556839,157.073654 178.218994,157.120926 158.413559,157.085815 
	C157.986343,146.027557 158.669189,135.005890 157.890457,124.088463 
	C157.075226,112.659355 172.135010,98.761185 183.396088,97.991119 
	C198.917770,96.929688 209.509262,105.140381 214.410172,115.637466 
	C216.030106,119.107147 216.666702,123.272270 216.801300,127.152443 
	C217.135544,136.787537 216.921448,146.441650 216.911133,156.557251 
z"/>
<path fill="#0B9D98" opacity="1.000000" stroke="none" 
	d="
M216.999878,216.455017 
	C217.062332,197.122849 217.124802,177.790665 217.364426,158.077820 
	C217.541580,157.697128 217.981003,157.473892 218.286728,157.709641 
	C218.977203,157.906631 219.361938,157.867874 219.746689,157.829117 
	C225.206680,157.730133 230.666656,157.631149 236.561005,157.728317 
	C236.957092,158.166702 236.961487,158.408173 236.960907,159.215546 
	C236.276840,161.442947 235.104309,163.098434 235.087982,164.765228 
	C234.945099,179.352158 234.892197,193.942657 235.085266,208.528488 
	C235.139984,212.663025 237.338272,215.310471 242.062195,215.028137 
	C245.366287,214.830673 248.690948,214.977356 252.458176,214.976746 
	C256.270874,215.509659 259.631805,216.036148 262.651520,216.723419 
	C262.064514,216.937683 261.818787,216.991119 261.133057,217.073868 
	C255.272949,217.092377 249.852829,217.081573 243.947556,216.942245 
	C236.904480,216.519684 230.348618,216.131653 223.787415,215.987900 
	C221.774323,215.943787 219.746567,216.568497 217.535263,216.793839 
	C217.345001,216.700729 216.999878,216.455017 216.999878,216.455017 
z"/>
<path fill="#17B9B6" opacity="1.000000" stroke="none" 
	d="
M156.698380,215.757645 
	C156.698380,215.757645 156.852066,216.158966 156.725037,216.334991 
	C145.781738,216.574234 134.883667,217.510406 124.167313,216.506668 
	C105.702812,214.777206 92.072678,195.955505 98.429573,177.215515 
	C102.248337,165.957886 115.193283,157.480316 128.270645,157.336212 
	C137.432373,157.235229 146.596375,157.340668 156.154633,157.534393 
	C156.549911,157.714890 156.781937,157.982071 156.356781,158.253113 
	C145.573990,159.347977 135.223450,160.281494 124.855927,160.952850 
	C119.003708,161.331787 115.069420,164.273376 115.029068,169.226929 
	C114.930222,181.361359 114.878708,193.499496 115.125626,205.629700 
	C115.161972,207.415222 116.488045,209.935867 117.977463,210.788269 
	C122.516930,213.386185 127.192169,215.426376 132.891327,215.151535 
	C140.798874,214.770172 148.760117,215.502258 156.698380,215.757645 
z"/>
<path fill="#F3C536" opacity="1.000000" stroke="none" 
	d="
M277.662079,335.786346 
	C277.535583,335.950623 277.409058,336.114929 277.110413,336.537872 
	C248.014694,336.734344 219.091064,336.695007 190.167831,336.565491 
	C187.923721,336.555450 185.682434,335.912598 183.236511,335.239197 
	C184.767441,334.612152 186.500900,334.052368 188.236053,334.046967 
	C208.124878,333.985107 228.013977,334.007568 248.160950,334.007568 
	C247.724197,333.043030 247.405487,332.339172 247.418671,331.316711 
	C248.496628,331.007233 249.242706,331.016388 250.066437,331.397949 
	C250.795624,332.189636 251.430618,332.944122 252.101166,332.977142 
	C260.355713,333.383728 268.615448,333.684875 277.001129,334.313110 
	C277.306274,335.004089 277.484192,335.395203 277.662079,335.786346 
z"/>
<path fill="#F3C536" opacity="1.000000" stroke="none" 
	d="
M167.342896,328.223022 
	C169.471741,329.249908 171.694824,330.590424 173.984344,332.246643 
	C171.846237,331.220459 169.641678,329.878540 167.342896,328.223022 
z"/>
<path fill="#F3C536" opacity="1.000000" stroke="none" 
	d="
M158.277618,313.316345 
	C159.092377,314.493896 159.822220,316.027344 160.319427,317.762939 
	C159.455414,316.534119 158.824066,315.103210 158.277618,313.316345 
z"/>
<path fill="#F3C536" opacity="1.000000" stroke="none" 
	d="
M162.232193,322.240967 
	C163.174377,322.985504 164.111237,324.051727 165.062012,325.456665 
	C164.126236,324.717773 163.176559,323.640228 162.232193,322.240967 
z"/>
<path fill="#F3C536" opacity="1.000000" stroke="none" 
	d="
M176.161835,333.224792 
	C176.996292,333.287170 177.967041,333.635986 178.994125,334.272186 
	C178.133011,334.210114 177.215576,333.860687 176.161835,333.224792 
z"/>
<path fill="#10C4C1" opacity="1.000000" stroke="none" 
	d="
M219.552979,157.645676 
	C219.361938,157.867874 218.977203,157.906631 218.496368,157.839203 
	C218.719940,157.642746 219.039597,157.552490 219.552979,157.645676 
z"/>
<path fill="#F3C536" opacity="1.000000" stroke="none" 
	d="
M157.989700,217.359253 
	C158.169922,217.008255 158.344879,216.985382 158.758057,217.077972 
	C158.861206,217.679291 158.726166,218.165176 158.392059,218.813919 
	C158.123474,218.546982 158.053970,218.117172 157.989700,217.359253 
z"/>
<path fill="#E6AA04" opacity="1.000000" stroke="none" 
	d="
M249.988785,331.025574 
	C249.242706,331.016388 248.496628,331.007233 247.377808,330.991882 
	C247.005081,330.985657 247.008728,331.001434 246.968903,330.649231 
	C242.552124,326.646088 238.196136,322.969666 233.788345,319.356384 
	C231.919601,317.824463 229.942169,316.425140 228.014130,314.965546 
	C228.014130,314.965546 227.999390,315.000824 228.007874,314.641144 
	C227.347122,313.498108 226.677872,312.714722 226.008636,311.931366 
	C226.008636,311.931366 226.004593,311.465973 225.991272,310.858978 
	C225.319260,309.161102 224.660583,308.070221 224.001892,306.979340 
	C224.001892,306.979340 223.998520,307.001312 224.001053,306.615082 
	C223.009308,303.809845 222.015030,301.390839 221.020767,298.971832 
	C221.008270,298.223083 220.995773,297.474304 220.971710,296.017303 
	C220.632919,294.540802 220.305695,293.772522 219.978485,293.004272 
	C219.972443,291.919281 219.966415,290.834259 219.945038,288.927948 
	C219.440369,285.536835 221.587662,281.890503 217.021957,280.985077 
	C217.020248,280.251526 217.018539,279.517944 217.488739,278.396454 
	C220.100952,278.001587 222.264359,278.188873 224.375656,277.937927 
	C226.947693,277.632233 229.475891,276.958008 232.361542,276.342804 
	C233.162766,276.161957 233.625488,276.081482 234.548279,276.051208 
	C240.028305,276.297943 245.048294,276.494415 250.071106,276.893921 
	C250.065277,277.368805 250.071243,277.640381 250.070770,278.314819 
	C250.700012,284.067810 251.747147,289.405304 251.914154,294.770203 
	C252.218430,304.544312 252.125565,314.337433 251.908859,324.116180 
	C251.857529,326.432373 250.659393,328.723114 249.988785,331.025574 
z"/>
<path fill="#169119" opacity="1.000000" stroke="none" 
	d="
M244.432724,217.070770 
	C249.852829,217.081573 255.272949,217.092377 261.041199,217.367844 
	C246.905060,232.124481 232.420761,246.616455 217.759506,260.993011 
	C217.582550,260.877594 217.160004,260.872009 217.160004,260.872009 
	C217.187485,255.934830 217.214966,250.997665 217.409790,245.473969 
	C217.772446,244.635193 217.891342,244.350952 218.282333,244.007751 
	C226.575516,236.098877 234.540634,228.237381 242.435867,220.306305 
	C243.306427,219.431793 243.776764,218.158905 244.432724,217.070770 
z"/>
<path fill="#F3C536" opacity="1.000000" stroke="none" 
	d="
M216.842407,261.165955 
	C217.160004,260.872009 217.582550,260.877594 217.735245,261.450928 
	C217.887939,266.561981 217.887939,271.099670 217.887939,276.443146 
	C222.917374,276.443146 227.470215,276.443146 232.023056,276.443146 
	C229.475891,276.958008 226.947693,277.632233 224.375656,277.937927 
	C222.264359,278.188873 220.100952,278.001587 217.499939,278.029846 
	C216.867752,272.520752 216.696274,266.990326 216.842407,261.165955 
z"/>
<path fill="#F3C536" opacity="1.000000" stroke="none" 
	d="
M217.933823,244.034744 
	C217.891342,244.350952 217.772446,244.635193 217.382629,245.017349 
	C216.791107,243.449051 216.081406,241.756393 216.051285,240.051727 
	C215.921844,232.726196 215.992111,225.397156 215.989136,217.613571 
	C216.148560,217.028229 216.308502,216.898712 216.734161,216.612106 
	C216.999878,216.455017 217.345001,216.700729 217.519760,217.270020 
	C217.774292,226.571106 217.854065,235.302933 217.933823,244.034744 
z"/>
<path fill="#F3C536" opacity="1.000000" stroke="none" 
	d="
M228.043610,315.313232 
	C229.942169,316.425140 231.919601,317.824463 233.788345,319.356384 
	C238.196136,322.969666 242.552124,326.646088 246.977356,330.644897 
	C238.771912,328.275635 233.136581,322.321747 228.043610,315.313232 
z"/>
<path fill="#F3C536" opacity="1.000000" stroke="none" 
	d="
M217.020416,281.411133 
	C221.587662,281.890503 219.440369,285.536835 219.897614,288.524139 
	C215.313278,288.017303 217.605194,284.350616 217.020416,281.411133 
z"/>
<path fill="#F3C536" opacity="1.000000" stroke="none" 
	d="
M220.744812,299.212158 
	C222.015030,301.390839 223.009308,303.809845 224.012177,306.613983 
	C219.932083,305.850708 220.127335,302.686035 220.744812,299.212158 
z"/>
<path fill="#F3C536" opacity="1.000000" stroke="none" 
	d="
M224.004883,307.356201 
	C224.660583,308.070221 225.319260,309.161102 225.981247,310.626465 
	C225.325653,309.911652 224.666748,308.822357 224.004883,307.356201 
z"/>
<path fill="#F3C536" opacity="1.000000" stroke="none" 
	d="
M219.732620,293.205383 
	C220.305695,293.772522 220.632919,294.540802 220.947327,295.643677 
	C220.451935,295.121033 219.969345,294.263763 219.732620,293.205383 
z"/>
<path fill="#F3C536" opacity="1.000000" stroke="none" 
	d="
M226.009644,312.294403 
	C226.677872,312.714722 227.347122,313.498108 228.025711,314.634155 
	C227.360260,314.210388 226.685455,313.433929 226.009644,312.294403 
z"/>
<path fill="#0ABDB9" opacity="1.000000" stroke="none" 
	d="
M277.438721,231.997131 
	C277.959045,231.086929 278.822601,230.220078 278.943909,229.259476 
	C279.721649,223.101669 280.457367,216.932938 280.950348,210.747345 
	C281.172729,207.956924 282.421997,206.977463 285.054993,206.984375 
	C299.706177,207.022812 314.358490,206.930740 329.007202,207.125809 
	C330.334167,207.143494 332.648560,208.746521 332.794708,209.841507 
	C334.081726,219.484512 335.400116,229.158493 335.880646,238.864334 
	C336.390442,249.161636 335.965912,259.503876 336.024658,269.826050 
	C336.034912,271.623474 336.417450,273.418793 336.319519,275.667542 
	C316.535309,276.204742 297.059601,276.289459 277.439087,276.266724 
	C277.294281,276.159241 276.990356,275.977570 277.103638,275.522217 
	C277.138916,267.184143 277.060974,259.301422 276.941895,250.987671 
	C276.922394,244.806839 276.944031,239.057037 277.054382,232.969055 
	C277.241699,232.419617 277.340210,232.208374 277.438721,231.997131 
z"/>
<path fill="#0D8D11" opacity="1.000000" stroke="none" 
	d="
M277.583862,276.374207 
	C297.059601,276.289459 316.535309,276.204742 336.466675,276.056396 
	C336.922272,275.992767 337.280731,276.325409 337.421265,276.528564 
	C337.706604,287.141693 337.917480,297.551300 337.976196,307.961792 
	C338.026611,316.903656 337.903198,325.846497 337.668457,335.185883 
	C330.884521,335.746613 324.289246,336.023651 317.692993,336.050171 
	C304.619110,336.102753 291.544678,336.017029 278.066284,335.887421 
	C277.484192,335.395203 277.306274,335.004089 277.124756,333.856445 
	C277.043640,314.758514 276.966095,296.417114 277.016846,277.793060 
	C277.291382,277.131683 277.437622,276.752930 277.583862,276.374207 
z"/>
<path fill="#FFFFFE" opacity="1.000000" stroke="none" 
	d="
M277.365051,231.536301 
	C277.340210,232.208374 277.241699,232.419617 276.759155,233.078613 
	C262.279541,247.684555 248.183884,261.842773 234.088226,276.000977 
	C233.625488,276.081482 233.162766,276.161957 232.361542,276.342804 
	C227.470215,276.443146 222.917374,276.443146 217.887939,276.443146 
	C217.887939,271.099670 217.887939,266.561981 217.912201,261.566345 
	C232.420761,246.616455 246.905060,232.124481 261.481201,217.338531 
	C261.818787,216.991119 262.064514,216.937683 263.110077,216.790756 
	C267.593994,216.591629 271.278076,216.485962 275.291870,216.524231 
	C276.099976,216.699356 276.578339,216.730545 277.056702,216.761749 
	C277.134918,221.532990 277.213135,226.304230 277.365051,231.536301 
z"/>
<path fill="#048E8C" opacity="1.000000" stroke="none" 
	d="
M274.962189,216.380310 
	C271.278076,216.485962 267.593994,216.591629 263.451324,216.629944 
	C259.631805,216.036148 256.270874,215.509659 252.448395,214.581299 
	C251.324570,210.034927 250.208298,205.903244 250.090607,201.743317 
	C249.809753,191.817184 249.945938,181.877136 250.052032,171.944183 
	C250.070160,170.245102 250.772308,168.553314 251.158463,166.858154 
	C259.220154,171.525848 266.881958,176.578735 269.921875,186.904221 
	C270.999908,189.079956 271.951935,190.556870 272.903931,192.033783 
	C272.939819,192.465988 272.975677,192.898193 272.797302,193.817322 
	C273.033386,194.878052 273.483673,195.451889 273.933960,196.025726 
	C273.933960,196.025726 273.971100,196.515350 274.081055,196.977783 
	C274.373535,197.712036 274.619171,197.902557 274.927856,198.011765 
	C274.955170,199.395035 274.982483,200.778305 274.743958,202.825073 
	C274.639435,207.785828 274.800812,212.083069 274.962189,216.380310 
z"/>
<path fill="#049592" opacity="1.000000" stroke="none" 
	d="
M251.065979,166.527863 
	C250.772308,168.553314 250.070160,170.245102 250.052032,171.944183 
	C249.945938,181.877136 249.809753,191.817184 250.090607,201.743317 
	C250.208298,205.903244 251.324570,210.034927 251.996643,214.574890 
	C248.690948,214.977356 245.366287,214.830673 242.062195,215.028137 
	C237.338272,215.310471 235.139984,212.663025 235.085266,208.528488 
	C234.892197,193.942657 234.945099,179.352158 235.087982,164.765228 
	C235.104309,163.098434 236.276840,161.442947 236.976166,159.397461 
	C237.772156,159.048859 238.505234,159.085007 239.670273,159.475952 
	C240.777267,160.194916 241.452316,160.559082 242.127365,160.923248 
	C245.076080,162.681366 248.024796,164.439468 251.065979,166.527863 
z"/>
<path fill="#0B9D98" opacity="1.000000" stroke="none" 
	d="
M275.291870,216.524231 
	C274.800812,212.083069 274.639435,207.785828 274.739990,203.240234 
	C275.665771,207.287369 276.329620,211.582886 277.025085,216.320068 
	C276.578339,216.730545 276.099976,216.699356 275.291870,216.524231 
z"/>
<path fill="#0B9D98" opacity="1.000000" stroke="none" 
	d="
M272.897400,191.674271 
	C271.951935,190.556870 270.999908,189.079956 270.086090,187.222549 
	C271.046448,188.332947 271.968658,189.823853 272.897400,191.674271 
z"/>
<path fill="#0B9D98" opacity="1.000000" stroke="none" 
	d="
M242.046722,160.615540 
	C241.452316,160.559082 240.777267,160.194916 240.033936,159.531219 
	C240.632462,159.590393 241.299271,159.949112 242.046722,160.615540 
z"/>
<path fill="#0B9D98" opacity="1.000000" stroke="none" 
	d="
M273.944916,195.725281 
	C273.483673,195.451889 273.033386,194.878052 272.821899,194.141678 
	C273.359100,194.461029 273.657501,194.942932 273.944916,195.725281 
z"/>
<path fill="#0B9D98" opacity="1.000000" stroke="none" 
	d="
M274.847717,197.785843 
	C274.619171,197.902557 274.373535,197.712036 274.097473,197.222748 
	C274.326019,197.097260 274.580536,197.282135 274.847717,197.785843 
z"/>
<path fill="#09B0AC" opacity="1.000000" stroke="none" 
	d="
M156.817474,215.326614 
	C148.760117,215.502258 140.798874,214.770172 132.891327,215.151535 
	C127.192169,215.426376 122.516930,213.386185 117.977463,210.788269 
	C116.488045,209.935867 115.161972,207.415222 115.125626,205.629700 
	C114.878708,193.499496 114.930222,181.361359 115.029068,169.226929 
	C115.069420,164.273376 119.003708,161.331787 124.855927,160.952850 
	C135.223450,160.281494 145.573990,159.347977 156.295990,158.419281 
	C156.752426,177.174805 156.844513,196.035187 156.817474,215.326614 
z"/>
<path fill="#FFFDF9" opacity="1.000000" stroke="none" 
	d="
M218.282333,244.007751 
	C217.854065,235.302933 217.774292,226.571106 217.710022,217.363129 
	C219.746567,216.568497 221.774323,215.943787 223.787415,215.987900 
	C230.348618,216.131653 236.904480,216.519684 243.947556,216.942245 
	C243.776764,218.158905 243.306427,219.431793 242.435867,220.306305 
	C234.540634,228.237381 226.575516,236.098877 218.282333,244.007751 
z"/>
<path fill="#ECB10C" opacity="1.000000" stroke="none" 
	d="
M276.888580,278.075714 
	C276.966095,296.417114 277.043640,314.758514 276.997498,333.556580 
	C268.615448,333.684875 260.355713,333.383728 252.101166,332.977142 
	C251.430618,332.944122 250.795624,332.189636 250.066437,331.397980 
	C250.659393,328.723114 251.857529,326.432373 251.908859,324.116180 
	C252.125565,314.337433 252.218430,304.544312 251.914154,294.770203 
	C251.747147,289.405304 250.700012,284.067810 250.528503,278.343292 
	C259.634369,278.004333 268.261475,278.040009 276.888580,278.075714 
z"/>
<path fill="#18921C" opacity="1.000000" stroke="none" 
	d="
M234.548279,276.051208 
	C248.183884,261.842773 262.279541,247.684555 276.670410,233.416779 
	C276.944031,239.057037 276.922394,244.806839 276.577759,251.056885 
	C271.820770,255.773651 267.280334,259.885193 262.985138,264.238739 
	C259.297455,267.976562 255.890091,271.990936 252.042664,275.848602 
	C251.173798,276.106415 250.621033,276.398651 250.068268,276.690887 
	C245.048294,276.494415 240.028305,276.297943 234.548279,276.051208 
z"/>
<path fill="#F3C536" opacity="1.000000" stroke="none" 
	d="
M250.071106,276.893921 
	C250.621033,276.398651 251.173798,276.106415 252.552399,275.952271 
	C261.248932,276.052734 269.119659,276.015167 276.990356,275.977570 
	C276.990356,275.977570 277.294281,276.159241 277.439087,276.266724 
	C277.437622,276.752930 277.291382,277.131683 277.016846,277.793060 
	C268.261475,278.040009 259.634369,278.004333 250.549561,277.940125 
	C250.071243,277.640381 250.065277,277.368805 250.071106,276.893921 
z"/>
<path fill="#FFFFFF" opacity="1.000000" stroke="none" 
	d="
M277.103638,275.522217 
	C269.119659,276.015167 261.248932,276.052734 252.868500,275.986694 
	C255.890091,271.990936 259.297455,267.976562 262.985138,264.238739 
	C267.280334,259.885193 271.820770,255.773651 276.618896,251.487900 
	C277.060974,259.301422 277.138916,267.184143 277.103638,275.522217 
z"/>
</svg>